<svg xmlns="http://www.w3.org/2000/svg" viewBox="0 0 13 16" shape-rendering="crispEdges">
  <g fill="#fff">
  <rect width="2" height="1" x="11" y="0"/>
  <rect width="6" height="1" x="7" y="1"/>
  <rect width="6" height="1" x="4" y="2"/>
  <rect width="2" height="1" x="11" y="2"/>
  <rect width="6" height="1" x="0" y="3"/>
  <rect width="2" height="1" x="11" y="3"/>
  <rect width="4" height="1" x="0" y="4"/>
  <rect width="2" height="1" x="11" y="4"/>
  <rect width="7" height="1" x="0" y="5"/>
  <rect width="2" height="1" x="11" y="5"/>
  <rect width="2" height="1" x="0" y="6"/>
  <rect width="8" height="1" x="5" y="6"/>
  <rect width="2" height="1" x="0" y="7"/>
  <rect width="5" height="1" x="8" y="7"/>
  <rect width="2" height="1" x="0" y="8"/>
  <rect width="5" height="1" x="8" y="8"/>
  <rect width="2" height="1" x="0" y="9"/>
  <rect width="6" height="1" x="4" y="9"/>
  <rect width="2" height="1" x="11" y="9"/>
  <rect width="7" height="1" x="0" y="10"/>
  <rect width="2" height="1" x="11" y="10"/>
  <rect width="4" height="1" x="0" y="11"/>
  <rect width="2" height="1" x="11" y="11"/>
  <rect width="7" height="1" x="0" y="12"/>
  <rect width="2" height="1" x="11" y="12"/>
  <rect width="6" height="1" x="4" y="13"/>
  <rect width="2" height="1" x="11" y="13"/>
  <rect width="5" height="1" x="8" y="14"/>
  <rect width="2" height="1" x="11" y="15"/>
  </g>
</svg>
